<svg xmlns="http://www.w3.org/2000/svg" viewBox="0 0 176.16 66.5"><defs><style>.cls-1{fill:none;}.cls-1,.cls-2{stroke:#000;stroke-miterlimit:10;stroke-width:4px;}.cls-3{fill:#fff;}</style></defs><title>Asset 6</title><g id="Layer_2" data-name="Layer 2"><g id="Layer_1-2" data-name="Layer 1"><path d="M24.35,30.23h8.3v5.5h-8.3V47H34.8v5.5H18.3V14H34.8v5.5H24.35Z"/><rect class="cls-1" x="2" y="2" width="48.55" height="62.5"/><rect class="cls-2" x="50.55" y="2" width="123.62" height="62.5"/><path class="cls-3" d="M61.61,14h6V47h10v5.5h-16Z"/><path class="cls-3" d="M88.51,14h6V52.5h-6Z"/><path class="cls-3" d="M120,41.33,124.14,14h8.41V52.5h-5.72V24.89L122.66,52.5h-5.72l-4.51-27.22V52.5h-5.28V14h8.41Z"/><path class="cls-3" d="M144.72,23.24c0-6.16,3.25-9.68,9.18-9.68s9.18,3.52,9.18,9.68v20c0,6.16-3.25,9.68-9.18,9.68s-9.18-3.52-9.18-9.68Zm6,20.4c0,2.75,1.21,3.79,3.13,3.79s3.13-1,3.13-3.79V22.86c0-2.75-1.21-3.79-3.13-3.79s-3.13,1-3.13,3.79Z"/></g></g></svg>